<svg xmlns="http://www.w3.org/2000/svg"
     viewBox="0 0 512 512">
  <path stroke="black" stroke-width="1"
        d="M 0.00,34.00
           C 0.00,34.00 0.00,47.00 0.00,47.00
             0.03,66.39 4.89,93.06 9.63,112.00
             36.17,218.16 118.22,303.67 222.00,337.26
             244.12,344.42 280.92,351.96 304.00,352.00
             304.00,352.00 320.00,352.00 320.00,352.00
             320.00,352.00 320.00,480.00 320.00,480.00
             325.97,475.73 333.56,467.44 339.00,462.00
             339.00,462.00 369.00,432.00 369.00,432.00
             369.00,432.00 465.00,336.00 465.00,336.00
             465.00,336.00 500.00,301.00 500.00,301.00
             502.45,298.55 510.80,291.22 510.80,288.00
             510.80,284.78 502.45,277.45 500.00,275.00
             500.00,275.00 465.00,240.00 465.00,240.00
             465.00,240.00 369.00,144.00 369.00,144.00
             369.00,144.00 339.00,114.00 339.00,114.00
             333.56,108.56 325.97,100.27 320.00,96.00
             320.00,96.00 320.00,224.00 320.00,224.00
             310.92,222.80 304.04,223.01 295.00,223.00
             282.00,222.98 253.39,219.65 240.00,217.58
             162.03,205.47 76.93,169.55 29.42,104.00
             19.28,90.01 10.17,74.59 5.02,58.00
             5.02,58.00 0.00,34.00 0.00,34.00 Z" />
</svg>