<svg class="nav-svg" xmlns="http://www.w3.org/2000/svg"
     width="0.75in" height="0.75in"
     viewBox="0 0 225 225">
  <path fill="#2891C4" stroke="white" stroke-width="1"
        d="M 144.00,52.00
           C 144.00,52.00 77.00,92.00 77.00,92.00
             68.77,74.59 42.75,70.59 27.00,79.35
             15.37,85.81 8.56,97.81 8.04,111.00
             6.98,138.11 32.55,156.07 58.00,147.97
             63.73,146.15 67.50,143.99 71.91,139.83
             74.37,137.51 76.20,134.06 80.01,135.02
             80.01,135.02 99.00,146.00 99.00,146.00
             99.00,146.00 144.00,173.00 144.00,173.00
             139.50,186.88 141.59,203.03 152.30,213.56
             171.05,232.02 205.10,226.45 214.30,201.00
             220.62,183.53 215.40,164.38 199.00,154.48
             183.28,144.99 155.36,148.22 148.00,167.00
             148.00,167.00 102.00,139.20 102.00,139.20
             102.00,139.20 82.89,126.62 82.89,126.62
             82.89,126.62 82.89,110.00 82.89,110.00
             82.89,110.00 82.89,98.21 82.89,98.21
             82.89,98.21 101.00,86.20 101.00,86.20
             101.00,86.20 148.00,58.00 148.00,58.00
             155.22,76.42 183.31,80.20 199.00,70.53
             215.38,60.45 220.68,41.62 214.30,24.00
             206.15,1.46 175.95,-6.60 157.01,7.49
             142.67,18.16 138.62,35.39 144.00,52.00 Z
           M 176.00,7.20
           C 176.00,7.20 181.00,7.20 181.00,7.20
             213.04,9.06 221.76,53.39 191.00,66.66
             186.64,68.54 182.72,69.15 178.00,68.96
             151.82,67.90 139.37,38.00 155.53,18.04
             160.75,11.59 168.11,8.79 176.00,7.20 Z
           M 44.00,81.33
           C 73.23,80.63 87.16,114.19 67.91,133.96
             64.91,137.04 61.93,138.97 58.00,140.66
             53.05,142.80 49.30,143.11 44.00,142.99
             22.61,142.49 8.75,119.35 17.35,100.00
             22.65,88.06 31.62,83.18 44.00,81.33 Z
           M 175.00,156.30
           C 180.48,155.75 184.79,155.88 190.00,157.93
             218.25,169.03 215.59,207.53 189.00,216.25
             185.43,217.42 181.77,218.14 178.00,217.91
             152.07,216.32 138.40,185.40 156.18,166.04
             161.59,160.16 167.34,157.75 175.00,156.30 Z" />
</svg>