<svg class="nav-svg" xmlns="http://www.w3.org/2000/svg"
     width="2.66667in" height="2.66667in"
     viewBox="0 0 800 800">
  <path fill="#2891C4" stroke="white" stroke-width="1"
        d="M 53.00,53.00
           C 53.00,53.00 53.00,192.00 53.00,192.00
             53.00,192.00 192.00,192.00 192.00,192.00
             192.00,192.00 192.00,53.00 192.00,53.00
             192.00,53.00 53.00,53.00 53.00,53.00 Z
           M 330.00,53.00
           C 330.00,53.00 330.00,123.00 330.00,123.00
             330.00,123.00 747.00,123.00 747.00,123.00
             747.00,123.00 747.00,53.00 747.00,53.00
             747.00,53.00 330.00,53.00 330.00,53.00 Z
           M 53.00,330.00
           C 53.00,330.00 53.00,470.00 53.00,470.00
             53.00,470.00 192.00,470.00 192.00,470.00
             192.00,470.00 192.00,330.00 192.00,330.00
             192.00,330.00 53.00,330.00 53.00,330.00 Z
           M 330.00,330.00
           C 330.00,330.00 330.00,400.00 330.00,400.00
             330.00,400.00 747.00,400.00 747.00,400.00
             747.00,400.00 747.00,330.00 747.00,330.00
             747.00,330.00 330.00,330.00 330.00,330.00 Z
           M 53.00,608.00
           C 53.00,608.00 53.00,747.00 53.00,747.00
             53.00,747.00 192.00,747.00 192.00,747.00
             192.00,747.00 192.00,608.00 192.00,608.00
             192.00,608.00 53.00,608.00 53.00,608.00 Z
           M 330.00,608.00
           C 330.00,608.00 330.00,678.00 330.00,678.00
             330.00,678.00 747.00,678.00 747.00,678.00
             747.00,678.00 747.00,608.00 747.00,608.00
             747.00,608.00 330.00,608.00 330.00,608.00 Z" />
</svg>
