<svg xmlns="http://www.w3.org/2000/svg"
     width="3.26667in" height="3.26667in"
     viewBox="0 0 980 980">
  <path fill="#2891C4" stroke="black" stroke-width="1"
        d="M 482.00,0.42
           C 476.34,1.23 470.70,0.97 465.00,1.00
             465.00,1.00 454.00,1.91 454.00,1.91
             454.00,1.91 437.00,3.17 437.00,3.17
             404.85,6.38 372.82,13.44 342.00,23.02
             213.35,63.01 106.81,157.02 48.26,278.00
             28.12,319.62 14.46,364.43 6.92,410.00
             6.92,410.00 1.91,454.00 1.91,454.00
             1.91,454.00 0.96,464.00 0.96,464.00
             0.96,464.00 0.96,480.00 0.96,480.00
             0.96,480.00 0.01,490.00 0.01,490.00
             0.01,490.00 1.00,503.00 1.00,503.00
             1.60,554.62 11.37,606.32 28.69,655.00
             52.03,720.58 89.97,780.75 138.04,831.00
             138.04,831.00 157.00,849.09 157.00,849.09
             204.71,893.31 255.50,924.37 316.00,947.81
             348.80,960.52 383.19,969.25 418.00,974.27
             418.00,974.27 454.00,978.09 454.00,978.09
             454.00,978.09 464.00,979.04 464.00,979.04
             464.00,979.04 479.00,979.04 479.00,979.04
             479.00,979.04 491.00,980.00 491.00,980.00
             491.00,980.00 504.00,979.00 504.00,979.00
             549.39,978.47 594.64,970.45 638.00,956.98
             782.82,911.96 900.53,797.70 951.31,655.00
             968.62,606.35 978.40,554.60 979.00,503.00
             979.00,503.00 979.99,490.00 979.99,490.00
             979.99,490.00 979.04,480.00 979.04,480.00
             979.04,480.00 979.04,464.00 979.04,464.00
             979.04,464.00 978.09,454.00 978.09,454.00
             975.90,422.09 970.52,390.89 962.15,360.00
             918.38,198.38 792.31,69.38 632.00,21.28
             597.32,10.88 562.09,4.39 526.00,1.91
             526.00,1.91 514.00,0.96 514.00,0.96
             514.00,0.96 502.00,0.96 502.00,0.96
             494.28,0.38 490.13,-0.57 482.00,0.42 Z
           M 472.00,44.14
           C 472.00,44.14 502.00,44.14 502.00,44.14
             502.00,44.14 516.00,45.00 516.00,45.00
             554.80,45.45 606.51,57.60 643.00,70.95
             790.34,124.84 900.51,253.26 928.42,408.00
             930.92,421.86 934.84,446.38 935.00,460.00
             935.00,460.00 936.00,477.00 936.00,477.00
             936.64,531.68 929.65,584.14 911.66,636.00
             868.96,759.02 772.17,860.49 650.00,906.58
             617.27,918.92 582.76,928.00 548.00,932.15
             548.00,932.15 520.00,935.00 520.00,935.00
             520.00,935.00 501.00,936.00 501.00,936.00
             501.00,936.00 479.00,936.00 479.00,936.00
             479.00,936.00 460.00,935.00 460.00,935.00
             448.99,934.87 425.31,931.46 414.00,929.42
             381.55,923.57 360.94,918.10 330.00,906.42
             288.14,890.63 250.34,868.70 215.00,841.35
             187.12,819.77 161.11,793.79 139.42,766.00
             96.75,711.31 68.21,650.84 53.79,583.00
             50.23,566.26 45.20,536.68 45.00,520.00
             45.00,520.00 44.00,503.00 44.00,503.00
             43.19,433.22 55.04,367.74 84.31,304.00
             134.06,195.64 228.10,108.53 341.00,69.34
             369.13,59.58 398.46,52.17 428.00,48.28
             428.00,48.28 461.00,45.00 461.00,45.00
             466.48,44.97 466.47,45.08 472.00,44.14 Z
           M 391.00,535.00
           C 375.20,539.51 345.14,559.11 332.00,569.60
             284.99,607.15 251.60,661.43 241.59,721.00
             239.97,730.63 238.02,743.35 238.00,753.00
             238.00,753.00 238.00,765.00 238.00,765.00
             238.00,765.00 287.00,765.00 287.00,765.00
             288.96,740.82 289.61,727.83 297.02,704.00
             311.12,658.71 344.59,617.83 385.00,593.45
             470.93,541.61 582.42,560.28 646.39,638.00
             660.45,655.09 671.75,674.28 679.58,695.00
             688.34,718.23 692.00,740.28 692.00,765.00
             692.00,765.00 742.00,765.00 742.00,765.00
             742.00,689.85 709.78,621.16 652.00,572.92
             637.90,561.15 622.43,550.97 606.00,542.75
             600.64,540.07 594.70,536.62 589.00,535.00
             600.62,525.02 610.09,518.89 620.83,507.00
             646.50,478.58 665.94,436.82 666.00,398.00
             666.04,373.51 665.56,358.87 657.97,335.00
             641.92,284.53 601.61,243.24 552.00,225.05
             486.36,200.98 410.68,217.17 362.04,268.00
             346.97,283.74 335.87,301.05 327.28,321.00
             320.69,336.32 314.20,360.34 314.00,377.00
             314.00,377.00 314.00,399.00 314.00,399.00
             314.06,436.19 333.24,477.36 357.29,505.00
             368.83,518.27 378.42,524.19 391.00,535.00 Z
           M 487.00,263.29
           C 492.80,262.80 492.90,263.56 498.00,263.91
             510.60,264.78 519.93,266.17 532.00,270.34
             548.71,276.12 563.90,285.32 577.00,297.17
             585.23,304.61 593.48,315.47 599.20,325.00
             636.69,387.49 612.15,469.16 547.00,501.73
             529.15,510.66 506.90,515.23 487.00,515.00
             475.42,514.86 456.81,511.36 446.00,507.19
             426.25,499.57 409.43,488.85 395.17,473.00
             361.07,435.12 353.21,377.36 376.78,332.00
             392.76,301.25 419.76,278.63 453.00,268.72
             458.75,267.01 469.09,264.74 475.00,264.17
             475.00,264.17 487.00,263.29 487.00,263.29 Z" />
</svg>
