<svg class="nav-svg"  xmlns="http://www.w3.org/2000/svg"
     width="3.05333in" height="3.26667in"
     viewBox="0 0 916 980">
  <path fill="#2891C4" stroke="white" stroke-width="1"
        d="M 309.00,546.00
           C 302.03,547.09 290.88,552.04 284.00,554.80
             263.18,563.15 245.40,572.45 226.00,583.58
             137.85,634.15 68.26,717.71 31.20,812.00
             13.33,857.46 6.98,893.03 1.28,941.00
             -1.13,961.32 13.32,980.96 35.00,979.49
             50.31,978.45 63.21,968.62 65.70,953.00
             65.70,953.00 68.28,929.00 68.28,929.00
             68.28,929.00 74.42,894.00 74.42,894.00
             83.58,852.53 101.71,807.70 124.69,772.00
             183.76,680.26 273.62,615.93 381.00,594.45
             414.72,587.70 440.87,586.60 475.00,587.00
             475.00,587.00 485.00,587.91 485.00,587.91
             508.15,589.50 530.46,592.99 553.00,598.63
             658.71,625.05 748.01,694.21 801.58,789.00
             819.32,820.39 834.27,858.68 841.79,894.00
             841.79,894.00 848.72,935.00 848.72,935.00
             848.72,935.00 850.76,955.00 850.76,955.00
             854.55,969.79 868.52,980.65 884.00,979.48
             900.78,978.22 911.96,967.52 914.32,951.00
             915.63,944.21 914.59,941.33 914.32,935.00
             911.03,896.84 901.41,855.85 888.05,820.00
             853.40,727.04 790.59,647.54 707.00,593.69
             685.91,580.11 664.93,568.99 642.00,558.86
             642.00,558.86 607.00,545.00 607.00,545.00
             626.98,535.26 651.28,513.72 667.00,498.00
             768.38,396.62 778.10,233.88 693.85,119.00
             655.98,67.37 600.47,29.12 539.00,11.58
             522.00,6.73 494.50,1.21 477.00,1.00
             477.00,1.00 458.00,0.00 458.00,0.00
             458.00,0.00 444.00,1.00 444.00,1.00
             403.92,1.47 361.68,13.91 326.00,31.75
             282.72,53.40 246.99,84.68 218.86,124.00
             196.38,155.42 180.86,191.39 172.35,229.00
             169.69,240.74 166.14,262.23 166.00,274.00
             166.00,274.00 165.01,292.00 165.01,292.00
             165.01,292.00 166.00,308.00 166.00,308.00
             166.00,308.00 168.28,335.00 168.28,335.00
             175.93,391.77 203.06,449.11 242.09,491.00
             254.92,504.77 268.92,517.37 284.00,528.63
             284.00,528.63 309.00,546.00 309.00,546.00 Z
           M 443.00,65.14
           C 443.00,65.14 468.00,65.14 468.00,65.14
             468.00,65.14 478.00,65.91 478.00,65.91
             502.67,67.71 526.31,73.93 549.00,83.72
             574.17,94.58 598.55,110.64 618.00,130.00
             637.73,149.64 654.06,172.67 665.69,198.00
             704.06,281.58 687.57,381.74 624.91,449.00
             606.19,469.10 583.53,485.50 559.00,497.75
             523.30,515.59 488.52,521.46 449.00,521.00
             449.00,521.00 439.00,520.09 439.00,520.09
             418.94,518.69 398.85,514.53 380.00,507.42
             350.06,496.13 323.23,480.18 300.00,457.96
             227.94,389.04 210.05,281.22 253.26,192.00
             279.00,138.84 327.27,96.62 383.00,77.34
             394.29,73.44 412.19,68.96 424.00,67.28
             424.00,67.28 443.00,65.14 443.00,65.14 Z" />
</svg>